<?xml version="1.0" standalone="no"?>
<!DOCTYPE svg PUBLIC "-//W3C//DTD SVG 20010904//EN"
 "http://www.w3.org/TR/2001/REC-SVG-20010904/DTD/svg10.dtd">
<svg version="1.0" xmlns="http://www.w3.org/2000/svg"
 width="1917.000000pt" height="1917.000000pt" viewBox="0 0 1917.000000 1917.000000"
 preserveAspectRatio="xMidYMid meet">
<metadata>
Created by potrace 1.14, written by Peter Selinger 2001-2017
</metadata>
<g transform="translate(0.000000,1917.000000) scale(0.100000,-0.100000)"
fill="#000000" stroke="none">
<path d="M6393 17227 c-90 -137 -239 -364 -243 -372 -3 -5 -72 -111 -154 -235
-82 -124 -201 -304 -264 -400 -63 -96 -161 -245 -217 -330 -166 -253 -330
-503 -456 -695 -65 -99 -122 -185 -128 -192 -6 -7 -11 -14 -11 -16 0 -2 -52
-82 -115 -177 -63 -96 -115 -175 -115 -176 0 -2 -40 -63 -88 -136 -49 -73
-133 -200 -187 -283 -54 -82 -158 -240 -230 -350 -73 -110 -182 -276 -243
-370 -62 -93 -116 -177 -122 -185 -13 -18 -295 -448 -358 -545 -25 -38 -127
-194 -227 -345 -99 -151 -204 -311 -233 -355 -184 -282 -322 -491 -330 -500
-5 -6 -11 -15 -13 -20 -2 -6 -43 -68 -90 -140 -187 -283 -289 -440 -289 -450
0 -5 71 -118 157 -250 87 -132 208 -316 270 -410 61 -93 172 -262 246 -375
147 -222 397 -603 522 -795 43 -66 132 -200 197 -299 65 -98 118 -182 118
-187 0 -4 3 -9 8 -11 6 -3 80 -109 92 -133 3 -5 46 -73 97 -150 51 -77 144
-219 207 -315 63 -96 119 -180 124 -185 5 -6 11 -15 13 -20 4 -9 45 -72 285
-435 49 -74 93 -143 99 -153 5 -9 89 -136 185 -282 474 -718 610 -927 610
-935 0 -4 4 -10 8 -12 5 -1 37 -48 72 -103 35 -55 71 -109 80 -120 9 -11 41
-59 71 -107 29 -49 57 -88 61 -88 5 0 8 -4 8 -10 0 -5 70 -116 156 -247 86
-131 210 -319 275 -418 65 -99 123 -185 129 -192 5 -7 10 -16 10 -20 1 -4 9
-18 19 -31 l19 -22 3174 0 3173 0 126 193 c70 105 215 327 324 492 108 165
249 379 312 475 63 96 190 290 282 430 93 140 223 338 289 440 66 102 125 190
130 195 5 6 11 15 13 20 2 6 40 64 83 130 44 66 125 190 181 275 56 85 176
268 267 405 91 138 194 295 230 350 36 55 130 199 210 320 79 121 193 294 253
385 60 91 148 225 197 299 48 73 88 135 88 138 0 2 6 10 13 18 11 12 64 92
152 231 22 35 46 72 53 81 15 22 185 279 469 713 117 179 217 332 223 340 42
60 220 334 220 337 0 2 7 11 15 20 10 9 12 19 7 27 -5 6 -52 76 -104 156 -128
195 -312 476 -420 639 -48 74 -88 138 -88 142 0 5 -4 9 -10 9 -5 0 -10 5 -10
10 0 6 -5 16 -11 23 -5 7 -48 71 -95 142 -47 72 -135 206 -197 300 -62 93
-114 174 -117 180 -3 5 -66 102 -141 215 -75 113 -199 302 -277 420 -77 118
-145 220 -151 227 -6 7 -11 14 -11 17 0 3 -44 72 -98 153 -54 81 -143 216
-197 298 -54 83 -136 209 -183 280 -47 72 -129 195 -182 275 -53 80 -99 152
-103 160 -4 8 -23 38 -42 65 -58 83 -70 102 -216 325 -140 214 -178 271 -622
947 -352 535 -554 844 -634 967 -40 61 -76 116 -80 121 -5 6 -39 58 -78 117
l-70 108 -3175 0 -3175 0 -22 -33z"/>
</g>
</svg>
